<svg xmlns="http://www.w3.org/2000/svg" xmlns:xlink="http://www.w3.org/1999/xlink" width="32" height="32" viewBox="0 0 32 32">
    <defs>
        <linearGradient id="b" x1="90.173%" x2="37.913%" y1="7.916%" y2="96.386%">
            <stop offset="0%" stop-color="#D5EFBD"/>
            <stop offset="100%" stop-color="#50CF8A"/>
        </linearGradient>
        <circle id="a" cx="16" cy="16" r="16"/>
        <path id="e" d="M17.364 6a8.636 8.636 0 1 1-1.142 17.198 5.455 5.455 0 1 1-7.42-7.42A8.636 8.636 0 0 1 17.364 6z"/>
        <filter id="d" width="170%" height="170%" x="-35%" y="-25%" filterUnits="objectBoundingBox">
            <feOffset dy="2" in="SourceAlpha" result="shadowOffsetOuter1"/>
            <feGaussianBlur in="shadowOffsetOuter1" result="shadowBlurOuter1" stdDeviation="2"/>
            <feColorMatrix in="shadowBlurOuter1" values="0 0 0 0 0.650980392 0 0 0 0 0.482352941 0 0 0 0 0.309803922 0 0 0 1 0"/>
        </filter>
        <linearGradient id="f" x1="1.405%" x2="141.615%" y1="27.411%" y2="99.895%">
            <stop offset="0%" stop-color="#FF4725"/>
            <stop offset="100%" stop-color="#C04500"/>
        </linearGradient>
    </defs>
    <g fill="none" fill-rule="evenodd">
        <mask id="c" fill="#fff">
            <use xlink:href="#a"/>
        </mask>
        <use fill="url(#b)" xlink:href="#a"/>
        <g fill="#000" mask="url(#c)">
            <use filter="url(#d)" xlink:href="#e"/>
        </g>
        <g mask="url(#c)">
            <g transform="translate(9 6)">
                <circle cx="8.636" cy="8.636" r="8.636" fill="#FFF"/>
                <circle cx="10" cy="6.364" r="4.545" fill="#F90"/>
                <circle cx="10.909" cy="6.364" r="4.545" fill="#FFAF36"/>
                <path stroke="#FFF" stroke-linecap="round" stroke-width=".519" d="M12.727 3.636l.455.91"/>
            </g>
        </g>
        <g mask="url(#c)">
            <g transform="translate(7 16)">
                <circle cx="5" cy="5" r="4.545" fill="url(#f)" stroke="#D41818" stroke-width=".909"/>
                <path fill="#FB724B" d="M4.7 4.673l-3.296-.7 2.48-2.57zM5.3 5.327l3.296.7-2.48 2.57zM4.668 5.295L3.91 8.578 1.385 6.053zM5.332 4.705l.758-3.283 2.525 2.525z"/>
            </g>
        </g>
    </g>
</svg>
